<mxfile host="65bd71144e">
    <diagram id="hlT4poXKcyNRVZ_4y7_H" name="Page-1">
        <mxGraphModel dx="1142" dy="690" grid="1" gridSize="10" guides="1" tooltips="1" connect="1" arrows="1" fold="1" page="1" pageScale="1" pageWidth="827" pageHeight="1169" math="0" shadow="0">
            <root>
                <mxCell id="0"/>
                <mxCell id="1" parent="0"/>
                <mxCell id="YeF0O-S-nuLADxENavJm-1" value="&lt;u&gt;&quot;main&quot;&lt;/u&gt;" style="shape=umlLifeline;perimeter=lifelinePerimeter;whiteSpace=wrap;html=1;container=1;collapsible=0;recursiveResize=0;outlineConnect=0;fillColor=#dae8fc;strokeColor=#6c8ebf;" parent="1" vertex="1">
                    <mxGeometry x="130" y="60" width="100" height="480" as="geometry"/>
                </mxCell>
                <mxCell id="YeF0O-S-nuLADxENavJm-2" value="" style="html=1;points=[];perimeter=orthogonalPerimeter;fillColor=#dae8fc;strokeColor=#6c8ebf;" parent="YeF0O-S-nuLADxENavJm-1" vertex="1">
                    <mxGeometry x="45" y="70" width="10" height="380" as="geometry"/>
                </mxCell>
                <mxCell id="YeF0O-S-nuLADxENavJm-13" value="toString()" style="html=1;verticalAlign=bottom;endArrow=block;rounded=0;" parent="YeF0O-S-nuLADxENavJm-1" target="YeF0O-S-nuLADxENavJm-3" edge="1">
                    <mxGeometry width="80" relative="1" as="geometry">
                        <mxPoint x="55" y="180" as="sourcePoint"/>
                        <mxPoint x="165" y="180" as="targetPoint"/>
                    </mxGeometry>
                </mxCell>
                <mxCell id="YeF0O-S-nuLADxENavJm-3" value="RealEstateRegister" style="shape=umlLifeline;perimeter=lifelinePerimeter;whiteSpace=wrap;html=1;container=1;collapsible=0;recursiveResize=0;outlineConnect=0;fillColor=#dae8fc;strokeColor=#6c8ebf;" parent="1" vertex="1">
                    <mxGeometry x="294" y="130" width="120" height="420" as="geometry"/>
                </mxCell>
                <mxCell id="YeF0O-S-nuLADxENavJm-4" value="" style="html=1;points=[];perimeter=orthogonalPerimeter;fillColor=#dae8fc;strokeColor=#6c8ebf;" parent="YeF0O-S-nuLADxENavJm-3" vertex="1">
                    <mxGeometry x="55" y="70" width="10" height="230" as="geometry"/>
                </mxCell>
                <mxCell id="YeF0O-S-nuLADxENavJm-5" value="RealEstate" style="shape=umlLifeline;perimeter=lifelinePerimeter;whiteSpace=wrap;html=1;container=1;collapsible=0;recursiveResize=0;outlineConnect=0;fillColor=#dae8fc;strokeColor=#6c8ebf;" parent="1" vertex="1">
                    <mxGeometry x="480" y="200" width="120" height="340" as="geometry"/>
                </mxCell>
                <mxCell id="YeF0O-S-nuLADxENavJm-6" value="" style="html=1;points=[];perimeter=orthogonalPerimeter;fillColor=#dae8fc;strokeColor=#6c8ebf;" parent="YeF0O-S-nuLADxENavJm-5" vertex="1">
                    <mxGeometry x="55" y="70" width="10" height="100" as="geometry"/>
                </mxCell>
                <mxCell id="YeF0O-S-nuLADxENavJm-12" value="(egt. flere objekter som er i aktivitet)" style="text;html=1;strokeColor=none;fillColor=none;align=center;verticalAlign=middle;whiteSpace=wrap;rounded=0;" parent="1" vertex="1">
                    <mxGeometry x="600" y="200" width="120" height="30" as="geometry"/>
                </mxCell>
                <mxCell id="YeF0O-S-nuLADxENavJm-17" value="toString()" style="html=1;verticalAlign=bottom;endArrow=block;rounded=0;exitX=1.2;exitY=0.335;exitDx=0;exitDy=0;exitPerimeter=0;" parent="1" source="YeF0O-S-nuLADxENavJm-4" target="YeF0O-S-nuLADxENavJm-5" edge="1">
                    <mxGeometry width="80" relative="1" as="geometry">
                        <mxPoint x="360" y="310" as="sourcePoint"/>
                        <mxPoint x="528.5" y="310" as="targetPoint"/>
                    </mxGeometry>
                </mxCell>
                <mxCell id="YeF0O-S-nuLADxENavJm-18" value="" style="endArrow=block;dashed=1;endFill=0;endSize=12;html=1;rounded=0;" parent="1" source="YeF0O-S-nuLADxENavJm-5" target="YeF0O-S-nuLADxENavJm-3" edge="1">
                    <mxGeometry width="160" relative="1" as="geometry">
                        <mxPoint x="460" y="370" as="sourcePoint"/>
                        <mxPoint x="490" y="230" as="targetPoint"/>
                    </mxGeometry>
                </mxCell>
                <mxCell id="YeF0O-S-nuLADxENavJm-20" value="" style="endArrow=block;dashed=1;endFill=0;endSize=12;html=1;rounded=0;exitX=0;exitY=0.991;exitDx=0;exitDy=0;exitPerimeter=0;" parent="1" source="YeF0O-S-nuLADxENavJm-4" target="YeF0O-S-nuLADxENavJm-1" edge="1">
                    <mxGeometry width="160" relative="1" as="geometry">
                        <mxPoint x="549.5" y="365" as="sourcePoint"/>
                        <mxPoint x="363.5" y="365" as="targetPoint"/>
                    </mxGeometry>
                </mxCell>
            </root>
        </mxGraphModel>
    </diagram>
</mxfile>